# xmcd CD database file
#
# Track frame offsets:
#	150
#	39554
#	64151
#	102360
#	122769
#	156564
#	191159
#	226335
#	256596
#
# Disc length: 3730 seconds
#
# Revision: 0
# Processed by: cddbd v1.5.1PL0 Copyright (c) Steve Scherf et al.
# Submitted via: CDex 1.51
#
DISCID=790e9009
DTITLE=Andy Farber and Andrew Williams - Double "A"
DYEAR=1998
DGENRE=Jazz
TTITLE0=Some of You
TTITLE1=Festive Minor
TTITLE2=Nearness of You
TTITLE3=Double "A"
TTITLE4=Put It in the Middle
TTITLE5=Shag Bag
TTITLE6=I Believe in You
TTITLE7=It Never Entered My Mind
TTITLE8=Take Me Out to the Ball Game
EXTD=YEAR: 1998
EXTT0=
EXTT1=
EXTT2=
EXTT3=
EXTT4=
EXTT5=
EXTT6=
EXTT7=
EXTT8=
PLAYORDER=
